<svg width="49" height="55" viewBox="0 0 49 55" fill="none" xmlns="http://www.w3.org/2000/svg">
<path fill-rule="evenodd" clip-rule="evenodd" 
d="M24.5 54.1668C13.1863 54.1668 7.52944 54.1668 4.01472 50.2615C0.5 46.3564 0.5 40.0708 0.5 27.5002C0.5 14.9294 0.5 8.64398 4.01472 4.73875C7.52944 0.833496 13.1863 0.833496 24.5 0.833496C35.8136 0.833496 41.4707 0.833496 44.9853 4.73875C48.5 8.64398 48.5 14.9294 48.5 27.5002C48.5 40.0708 48.5 46.3564 44.9853 50.2615C41.4707 54.1668 35.8136 54.1668 24.5 54.1668ZM32.5 11.5002H16.5C15.26 11.5002 14.6401 11.5002 14.1314 11.6365C12.751 12.0063 11.6728 13.0845 11.303 14.4649C11.1667 14.9735 11.1667 15.5935 11.1667 16.8335C11.1667 18.0735 11.1667 18.6934 11.303 19.2021C11.6728 20.5825 12.751 21.6607 14.1314 22.0305C14.6401 22.1668 15.26 22.1668 16.5 22.1668H32.5C33.74 22.1668 34.36 22.1668 34.8685 22.0305C36.2491 21.6607 37.3272 20.5825 37.6971 19.2021C37.8333 18.6934 37.8333 18.0735 37.8333 16.8335C37.8333 15.5935 37.8333 14.9735 37.6971 14.4649C37.3272 13.0845 36.2491 12.0063 34.8685 11.6365C34.36 11.5002 33.74 11.5002 32.5 11.5002ZM16.5 30.1668C16.5 31.6396 15.3061 32.8335 13.8333 32.8335C12.3606 32.8335 11.1667 31.6396 11.1667 30.1668C11.1667 28.694 12.3606 27.5002 13.8333 27.5002C15.3061 27.5002 16.5 28.694 16.5 30.1668ZM24.5 32.8335C25.9728 32.8335 27.1667 31.6396 27.1667 30.1668C27.1667 28.694 25.9728 27.5002 24.5 27.5002C23.0272 27.5002 21.8333 28.694 21.8333 30.1668C21.8333 31.6396 23.0272 32.8335 24.5 32.8335ZM37.8333 30.1668C37.8333 31.6396 36.6395 32.8335 35.1667 32.8335C33.6939 32.8335 32.5 31.6396 32.5 30.1668C32.5 28.694 33.6939 27.5002 35.1667 27.5002C36.6395 27.5002 37.8333 28.694 37.8333 30.1668ZM35.1667 43.5002C36.6395 43.5002 37.8333 42.3063 37.8333 40.8335C37.8333 39.3607 36.6395 38.1668 35.1667 38.1668C33.6939 38.1668 32.5 39.3607 32.5 40.8335C32.5 42.3063 33.6939 43.5002 35.1667 43.5002ZM27.1667 40.8335C27.1667 42.3063 25.9728 43.5002 24.5 43.5002C23.0272 43.5002 21.8333 42.3063 21.8333 40.8335C21.8333 39.3607 23.0272 38.1668 24.5 38.1668C25.9728 38.1668 27.1667 39.3607 27.1667 40.8335ZM13.8333 43.5002C15.3061 43.5002 16.5 42.3063 16.5 40.8335C16.5 39.3607 15.3061 38.1668 13.8333 38.1668C12.3606 38.1668 11.1667 39.3607 11.1667 40.8335C11.1667 42.3063 12.3606 43.5002 13.8333 43.5002Z" fill="#777777"
/>
</svg>
