<svg width="55" height="55" viewBox="0 0 55 55" fill="none" xmlns="http://www.w3.org/2000/svg">
<path fill-rule="evenodd" clip-rule="evenodd" d="M31.3663 8.51395H39.553C49.393 8.51395 54.193 13.7673 54.1663 24.5406V37.5273C54.1663 47.8206 47.8197 54.1673 37.4997 54.1673H17.473C7.20634 54.1673 0.833008 47.8206 0.833008 37.5006V17.474C0.833008 6.43395 5.73967 0.833951 15.4197 0.833951H19.633C22.1157 0.807285 24.433 1.95395 25.953 3.90062L28.2997 7.02062C29.0463 7.95395 30.1663 8.51395 31.3663 8.51395ZM15.153 36.2739H39.8463C40.9397 36.2739 41.8197 35.3673 41.8197 34.2739C41.8197 33.1539 40.9397 32.2739 39.8463 32.2739H15.153C14.033 32.2739 13.153 33.1539 13.153 34.2739C13.153 35.3673 14.033 36.2739 15.153 36.2739Z" fill="#777777"/>
</svg>
