<svg width="47" height="55" viewBox="0 0 47 55" fill="none" xmlns="http://www.w3.org/2000/svg">
<path fill-rule="evenodd" clip-rule="evenodd" d="M15.3019 39.2066H29.6649C30.7474 39.2066 31.6451 38.2999 31.6451 37.2066C31.6451 36.1133 30.7474 35.2333 29.6649 35.2333H15.3019C14.2194 35.2333 13.3217 36.1133 13.3217 37.2066C13.3217 38.2999 14.2194 39.2066 15.3019 39.2066ZM24.226 21.8999H15.3019C14.2194 21.8999 13.3217 22.8066 13.3217 23.8999C13.3217 24.9933 14.2194 25.8733 15.3019 25.8733H24.226C25.3085 25.8733 26.2062 24.9933 26.2062 23.8999C26.2062 22.8066 25.3085 21.8999 24.226 21.8999ZM43.0681 19.5682C43.6887 19.5611 44.3645 19.5533 44.9785 19.5533C45.6385 19.5533 46.1666 20.0866 46.1666 20.7533V42.1933C46.1666 48.8066 40.8597 54.1666 34.3118 54.1666H13.2953C6.43061 54.1666 0.833252 48.5399 0.833252 41.6066V12.8599C0.833252 6.24659 6.16658 0.833252 12.7408 0.833252H26.8399C27.5263 0.833252 28.0544 1.39325 28.0544 2.05992V10.6466C28.0544 15.5266 32.0412 19.5266 36.8729 19.5533C38.0014 19.5533 38.9964 19.5617 39.8671 19.5691C40.5445 19.5748 41.1467 19.5799 41.6781 19.5799C42.054 19.5799 42.5412 19.5743 43.0681 19.5682ZM43.7962 15.6759C41.6259 15.6839 39.0674 15.6759 37.2272 15.6573C34.307 15.6573 31.9018 13.2279 31.9018 10.2786V3.24925C31.9018 2.09992 33.2826 1.52925 34.0721 2.35859C35.5023 3.86061 37.4683 5.92582 39.4248 7.98105C41.3725 10.0271 43.3108 12.0632 44.7018 13.5239C45.4727 14.3319 44.9077 15.6733 43.7962 15.6759Z" fill="#777777"/>
</svg>
