<svg width="65" height="65" viewBox="0 0 65 65" fill="none" xmlns="http://www.w3.org/2000/svg">
<path d="M44.5 34.5001L42.9 29.9001H42.1C35.3 29.9001 28.7 28.5001 23.1 26.1001L21.1 31.7001C26.5 33.5001 32.5 34.3001 38.5 34.3001H44.5V34.5001Z" fill="#777777"/>
<path d="M41.7 25.9L36.1 9.1C35.5 7.5 34.1 6.5 32.5 6.5C30.9 6.5 29.5 7.5 28.9 9.1L24.5 22.3C29.7 24.7 35.5 25.9 41.7 25.9Z" fill="#777777"/>
<path d="M45.9 38.5H38.7C32.3 38.5 25.9 37.5 19.9 35.7L18.5 39.9C18.5 40.1 18.5 40.3 18.5 40.5C18.5 45.1 24.5 48.5 32.5 48.5C40.5 48.5 46.5 45.1 46.5 40.5C46.5 40.3 46.5 40.1 46.3 39.9L45.9 38.5Z" fill="#777777"/>
<path d="M58.1 41.9001L49.5 37.1001L50.1 38.7001C50.3 39.3001 50.5 39.9001 50.5 40.7001C50.5 47.7001 42.9 52.7001 32.5 52.7001C22.1 52.7001 14.5 47.7001 14.5 40.7001C14.5 40.1001 14.7 39.5001 14.9 38.9001L15.5 37.3001L6.90004 42.1001C5.50004 42.9001 4.70004 44.3001 4.90004 45.7001C4.90004 47.3001 5.70004 48.5001 7.10004 49.3001L30.5 61.7001C31.1 62.1001 31.7 62.1001 32.5 62.1001C33.3 62.1001 33.9 61.9001 34.5 61.7001L58.1 49.1001C59.5 48.3001 60.3 47.1001 60.3 45.5001C60.3 43.9001 59.5 42.5001 58.1 41.9001Z" fill="#777777"/>
</svg>
