<svg width="55" height="39" viewBox="0 0 55 39" fill="none" xmlns="http://www.w3.org/2000/svg">
<path d="M30.1666 19.5002C30.1666 18.0274 28.9727 16.8335 27.4999 16.8335C26.0272 16.8335 24.8333 18.0274 24.8333 19.5002C24.8333 20.9729 26.0272 22.1668 27.4999 22.1668C28.9727 22.1668 30.1666 20.9729 30.1666 19.5002Z" fill="#777777"/>
<path fill-rule="evenodd" clip-rule="evenodd" d="M8.83325 0.833496H46.1666C50.5849 0.833496 54.1666 4.41522 54.1666 8.8335V30.1668C54.1666 34.5851 50.5849 38.1668 46.1666 38.1668H8.83325C4.41497 38.1668 0.833252 34.5851 0.833252 30.1668V8.8335C0.833252 4.41522 4.41497 0.833496 8.83325 0.833496ZM8.83325 4.8335C7.36049 4.8335 6.16659 6.0274 6.16659 7.50016C6.16659 8.97292 7.36049 10.1668 8.83325 10.1668H14.1666C15.6393 10.1668 16.8333 8.97292 16.8333 7.50016C16.8333 6.0274 15.6393 4.8335 14.1666 4.8335H8.83325ZM38.1666 7.50016C38.1666 6.0274 39.3605 4.8335 40.8333 4.8335H46.1666C47.6393 4.8335 48.8333 6.0274 48.8333 7.50016C48.8333 8.97292 47.6393 10.1668 46.1666 10.1668H40.8333C39.3605 10.1668 38.1666 8.97292 38.1666 7.50016ZM8.83325 28.8335C7.36049 28.8335 6.16659 30.0274 6.16659 31.5002C6.16659 32.9729 7.36049 34.1668 8.83325 34.1668H14.1666C15.6393 34.1668 16.8333 32.9729 16.8333 31.5002C16.8333 30.0274 15.6393 28.8335 14.1666 28.8335H8.83325ZM38.1666 31.5002C38.1666 30.0274 39.3605 28.8335 40.8333 28.8335H46.1666C47.6393 28.8335 48.8333 30.0274 48.8333 31.5002C48.8333 32.9729 47.6393 34.1668 46.1666 34.1668H40.8333C39.3605 34.1668 38.1666 32.9729 38.1666 31.5002ZM27.4999 11.5002C31.9182 11.5002 35.4999 15.0819 35.4999 19.5002C35.4999 23.9184 31.9182 27.5002 27.4999 27.5002C23.0816 27.5002 19.4999 23.9184 19.4999 19.5002C19.4999 15.0819 23.0816 11.5002 27.4999 11.5002Z" fill="#777777"/>
</svg>
