<svg width="65" height="45" viewBox="0 0 65 45" fill="none" xmlns="http://www.w3.org/2000/svg">
<path d="M28.5 20.5H36.5C38.709 20.5 40.5 18.709 40.5 16.5V4.5C40.5 2.291 38.709 0.5 36.5 0.5H28.5C26.291 0.5 24.5 2.291 24.5 4.5V16.5C24.5 18.709 26.291 20.5 28.5 20.5Z" fill="#777777"/>
<path d="M60.5 32.5C60.5 21.3586 53.9432 11.7451 44.5 7.24023V16.5C44.5 20.9111 40.9113 24.5 36.5 24.5H28.5C24.0887 24.5 20.5 20.9111 20.5 16.5V7.24023C11.0568 11.7451 4.5 21.3586 4.5 32.5C2.291 32.5 0.5 34.291 0.5 36.5V40.5C0.5 42.709 2.291 44.5 4.5 44.5H60.5C62.709 44.5 64.5 42.709 64.5 40.5V36.5C64.5 34.291 62.709 32.5 60.5 32.5Z" fill="#777777"/>
</svg>
