<svg width="51" height="55" viewBox="0 0 51 55" fill="none" xmlns="http://www.w3.org/2000/svg">
<path d="M17.8595 50.8957V42.7418C17.8595 40.6603 19.5592 38.973 21.6559 38.973H29.3204C30.3272 38.973 31.2929 39.3701 32.0048 40.0768C32.7168 40.7836 33.1168 41.7423 33.1168 42.7418V50.8957C33.1104 51.7611 33.4523 52.5932 34.0664 53.2073C34.6805 53.8214 35.5162 54.1668 36.3879 54.1668H41.6169C44.0591 54.1731 46.4034 53.2144 48.1325 51.5023C49.8616 49.7902 50.8334 47.4654 50.8334 45.041V21.8118C50.8333 19.8534 49.9589 17.9957 48.4457 16.7393L30.6575 2.63581C27.5632 0.162994 23.1297 0.242835 20.1278 2.82544L2.74545 16.7393C1.16072 17.9587 0.213554 19.8219 0.166748 21.8118V45.0173C0.166748 50.0704 4.2931 54.1668 9.38321 54.1668H14.4929C16.3034 54.1668 17.7747 52.7167 17.7879 50.9194L17.8595 50.8957Z" fill="#777777"/>
</svg>
