<svg width="55" height="55" viewBox="0 0 55 55" fill="none" xmlns="http://www.w3.org/2000/svg">
<path fill-rule="evenodd" clip-rule="evenodd" d="M28.3703 1.39235C28.7961 1.01011 29.3594 0.80975 29.936 0.835452C42.1248 1.20033 52.3116 10.0487 54.1578 21.8749C54.1695 21.9455 54.1695 22.0176 54.1578 22.0882C54.1975 22.6477 54.0084 23.1998 53.6323 23.6222C53.2561 24.0446 52.7239 24.3026 52.1534 24.339L31.6748 25.6895C30.9975 25.7496 30.3259 25.5267 29.8248 25.0757C29.3238 24.6247 29.0397 23.9873 29.0425 23.3202L27.666 3.20476V2.87306C27.691 2.30732 27.9444 1.77459 28.3703 1.39235ZM26.9657 30.9494L44.6458 29.8595H44.8362C45.5984 29.872 46.3243 30.181 46.8542 30.7187C47.3841 31.2564 47.6745 31.9786 47.6616 32.7264C46.9622 42.9186 39.4897 51.4346 29.3206 53.6285C19.1516 55.8225 8.72705 51.1677 3.734 42.2036C2.26583 39.6218 1.33806 36.7783 1.00513 33.8399C0.876002 32.9693 0.819466 32.0897 0.836084 31.21C0.869738 20.3721 8.58599 11.0174 19.3828 8.72526C20.6898 8.48062 22.0002 9.1332 22.5705 10.3127C22.8522 10.7375 22.9252 11.2575 22.9584 11.7661C23.1453 14.6303 23.338 17.4706 23.5299 20.3C23.695 22.7337 23.8596 25.1593 24.0194 27.585C24.0112 28.1564 24.101 28.725 24.2851 29.2672C24.7184 30.3339 25.7969 31.0107 26.9657 30.9494Z" fill="#777777"/>
</svg>
