<svg width="47" height="55" viewBox="0 0 47 55" fill="none" xmlns="http://www.w3.org/2000/svg">
<path fill-rule="evenodd" clip-rule="evenodd" d="M22.7748 53.9363C23.0701 54.0906 23.4004 54.1691 23.7306 54.1665C24.0608 54.1638 24.3883 54.0828 24.6863 53.9259L34.2006 48.8398C36.8987 47.4016 39.0115 45.7934 40.6599 43.9211C44.2439 39.8418 46.201 34.6354 46.1661 29.267L46.0533 11.5585C46.0426 9.51888 44.7029 7.69888 42.7217 7.0373L25.0219 1.09876C23.9561 0.737894 22.7883 0.745739 21.7413 1.11706L4.10857 7.26741C2.13805 7.95514 0.822579 9.78822 0.833317 11.8305L0.946072 29.5258C0.980972 34.9022 3.00519 40.085 6.64824 44.1225C8.31271 45.9686 10.4443 47.5533 13.1719 48.968L22.7748 53.9363ZM20.2562 33.1237C20.6535 33.5055 21.1689 33.6938 21.6844 33.6886C22.1998 33.6859 22.7126 33.4924 23.1046 33.1054L33.5021 22.8548C34.2834 22.0834 34.2753 20.8439 33.486 20.083C32.6941 19.322 31.4189 19.3273 30.6376 20.0987L21.6548 28.9529L17.9769 25.4175C17.1849 24.6565 15.9124 24.6644 15.1285 25.4358C14.3473 26.2072 14.3553 27.4467 15.1473 28.2076L20.2562 33.1237Z" fill="#777777"/>
</svg>
