<svg width="55" height="55" viewBox="0 0 55 55" fill="none" xmlns="http://www.w3.org/2000/svg">
<path fill-rule="evenodd" clip-rule="evenodd" d="M0.833252 23.9531C0.833252 11.1843 11.0742 0.833252 23.707 0.833252C29.7734 0.833252 35.5915 3.26908 39.8811 7.60489C44.1708 11.9407 46.5807 17.8213 46.5807 23.9531C46.5807 36.7218 36.3398 47.0729 23.707 47.0729C11.0742 47.0729 0.833252 36.7218 0.833252 23.9531ZM46.2022 42.578L53.0146 48.077H53.1329C54.5112 49.4701 54.5112 51.7287 53.1329 53.1218C51.7547 54.5149 49.5201 54.5149 48.1418 53.1218L42.4885 46.6425C41.954 46.1042 41.6536 45.3729 41.6536 44.6103C41.6536 43.8476 41.954 43.1163 42.4885 42.578C43.5192 41.5543 45.1715 41.5543 46.2022 42.578Z" fill="#777777"/>
</svg>
