<svg width="51" height="55" viewBox="0 0 51 55" fill="none" xmlns="http://www.w3.org/2000/svg">
<path fill-rule="evenodd" clip-rule="evenodd" d="M47.906 31.7135C48.8598 32.2202 49.5956 33.0202 50.1134 33.8202C51.1217 35.4735 51.04 37.5002 50.0589 39.2868L48.1512 42.4868C47.1429 44.1935 45.2625 45.2602 43.3276 45.2602C42.3738 45.2602 41.3109 44.9935 40.4389 44.4602C39.7303 44.0068 38.9127 43.8468 38.0407 43.8468C35.3427 43.8468 33.0808 46.0602 32.999 48.7002C32.999 51.7668 30.4918 54.1668 27.3578 54.1668H23.6515C20.4903 54.1668 17.9831 51.7668 17.9831 48.7002C17.9286 46.0602 15.6666 43.8468 12.9687 43.8468C12.0693 43.8468 11.2518 44.0068 10.5705 44.4602C9.69839 44.9935 8.6083 45.2602 7.68173 45.2602C5.71957 45.2602 3.83917 44.1935 2.83084 42.4868L0.950435 39.2868C-0.0578966 37.5535 -0.112401 35.4735 0.89593 33.8202C1.33197 33.0202 2.14953 32.2202 3.07611 31.7135C3.83917 31.3402 4.32971 30.7268 4.79299 30.0068C6.1556 27.7135 5.33804 24.7002 3.0216 23.3402C0.323634 21.8202 -0.548436 18.4335 1.00494 15.7935L2.83084 12.6468C4.41146 10.0068 7.79074 9.0735 10.516 10.6202C12.8869 11.9002 15.9664 11.0468 17.3563 8.78016C17.7923 8.0335 18.0376 7.2335 17.9831 6.4335C17.9286 5.3935 18.2283 4.40683 18.7461 3.60683C19.7544 1.9535 21.5803 0.886829 23.5698 0.833496H27.4123C29.429 0.833496 31.2549 1.9535 32.2632 3.60683C32.7537 4.40683 33.0808 5.3935 32.999 6.4335C32.9445 7.2335 33.1898 8.0335 33.6258 8.78016C35.0157 11.0468 38.0952 11.9002 40.4934 10.6202C43.1913 9.0735 46.5979 10.0068 48.1512 12.6468L49.9771 15.7935C51.5578 18.4335 50.6857 21.8202 47.9605 23.3402C45.644 24.7002 44.8265 27.7135 46.2163 30.0068C46.6524 30.7268 47.1429 31.3402 47.906 31.7135ZM17.7923 27.5268C17.7923 31.7135 21.2533 35.0468 25.5319 35.0468C29.8105 35.0468 33.1898 31.7135 33.1898 27.5268C33.1898 23.3402 29.8105 19.9802 25.5319 19.9802C21.2533 19.9802 17.7923 23.3402 17.7923 27.5268Z" fill="#777777"/>
</svg>
