<svg width="55" height="55" viewBox="0 0 55 55" fill="none" xmlns="http://www.w3.org/2000/svg">
<path d="M38.6733 0.833496H16.3266C6.61992 0.833496 0.833252 6.62016 0.833252 16.3268V38.6735C0.833252 48.3802 6.61992 54.1668 16.3266 54.1668H38.6733C48.3799 54.1668 54.1666 48.3802 54.1666 38.6735V16.3268C54.1666 6.62016 48.3799 0.833496 38.6733 0.833496ZM22.0866 35.2335L16.0866 41.2335C15.6866 41.6335 15.1799 41.8202 14.6733 41.8202C14.1666 41.8202 13.6333 41.6335 13.2599 41.2335L11.2599 39.2335C10.4599 38.4602 10.4599 37.1802 11.2599 36.4068C12.0333 35.6335 13.2866 35.6335 14.0866 36.4068L14.6733 36.9935L19.2599 32.4068C20.0333 31.6335 21.2866 31.6335 22.0866 32.4068C22.8599 33.1802 22.8599 34.4602 22.0866 35.2335ZM22.0866 16.5668L16.0866 22.5668C15.6866 22.9668 15.1799 23.1535 14.6733 23.1535C14.1666 23.1535 13.6333 22.9668 13.2599 22.5668L11.2599 20.5668C10.4599 19.7935 10.4599 18.5135 11.2599 17.7402C12.0333 16.9668 13.2866 16.9668 14.0866 17.7402L14.6733 18.3268L19.2599 13.7402C20.0333 12.9668 21.2866 12.9668 22.0866 13.7402C22.8599 14.5135 22.8599 15.7935 22.0866 16.5668ZM42.3266 39.8202H28.3266C27.2333 39.8202 26.3266 38.9135 26.3266 37.8202C26.3266 36.7268 27.2333 35.8202 28.3266 35.8202H42.3266C43.4466 35.8202 44.3266 36.7268 44.3266 37.8202C44.3266 38.9135 43.4466 39.8202 42.3266 39.8202ZM42.3266 21.1535H28.3266C27.2333 21.1535 26.3266 20.2468 26.3266 19.1535C26.3266 18.0602 27.2333 17.1535 28.3266 17.1535H42.3266C43.4466 17.1535 44.3266 18.0602 44.3266 19.1535C44.3266 20.2468 43.4466 21.1535 42.3266 21.1535Z" fill="#777777"/>
</svg>
