<svg width="65" height="65" viewBox="0 0 65 65" fill="none" xmlns="http://www.w3.org/2000/svg">
<g clip-path="url(#clip0_299_6380)">
<path d="M28.5 30.5H36.5C38.709 30.5 40.5 28.709 40.5 26.5V14.5C40.5 12.291 38.709 10.5 36.5 10.5H28.5C26.291 10.5 24.5 12.291 24.5 14.5V26.5C24.5 28.709 26.291 30.5 28.5 30.5Z" fill="#777777"/>
<path d="M60.5 42.5C60.5 31.3586 53.9432 21.7451 44.5 17.2402V26.5C44.5 30.9111 40.9113 34.5 36.5 34.5H28.5C24.0887 34.5 20.5 30.9111 20.5 26.5V17.2402C11.0568 21.7451 4.5 31.3586 4.5 42.5C2.291 42.5 0.5 44.291 0.5 46.5V50.5C0.5 52.709 2.291 54.5 4.5 54.5H60.5C62.709 54.5 64.5 52.709 64.5 50.5V46.5C64.5 44.291 62.709 42.5 60.5 42.5Z" fill="#777777"/>
</g>
<defs>
<clipPath id="clip0_299_6380">
<rect width="64" height="64" fill="white" transform="translate(0.5 0.5)"/>
</clipPath>
</defs>
</svg>
