<svg width="65" height="65" viewBox="0 0 65 65" fill="none" xmlns="http://www.w3.org/2000/svg">
<path d="M34.0621 57.6047C35.6243 59.1668 38.1384 59.1668 43.1667 59.1668H48.5C53.5283 59.1668 56.0424 59.1668 57.6045 57.6047C59.1667 56.0426 59.1667 53.5284 59.1667 48.5002V16.5002C59.1667 11.4719 59.1667 8.95768 57.6045 7.3956C56.0424 5.8335 53.5283 5.8335 48.5 5.8335H43.1667C38.1384 5.8335 35.6243 5.8335 34.0621 7.3956C32.7224 8.7352 32.5317 10.775 32.5045 14.5002H37.8333C38.9379 14.5002 39.8333 15.3956 39.8333 16.5002C39.8333 17.6047 38.9379 18.5002 37.8333 18.5002H32.5V22.5002H40.5C41.6045 22.5002 42.5 23.3956 42.5 24.5002C42.5 25.6047 41.6045 26.5002 40.5 26.5002H32.5V30.5002H37.8333C38.9379 30.5002 39.8333 31.3956 39.8333 32.5002C39.8333 33.6047 38.9379 34.5002 37.8333 34.5002H32.5V38.5002H40.5C41.6045 38.5002 42.5 39.3956 42.5 40.5002C42.5 41.6047 41.6045 42.5002 40.5 42.5002H32.5V46.5002H37.8333C38.9379 46.5002 39.8333 47.3956 39.8333 48.5002C39.8333 49.6047 38.9379 50.5002 37.8333 50.5002H32.5045C32.5317 54.2252 32.7224 56.2652 34.0621 57.6047Z" fill="#777777"/>
<path d="M21.8333 41.0159V19.7377C19.7826 20.583 17.0777 21.3081 13.8337 21.3081C10.5893 21.3081 7.88403 20.5828 5.83325 19.7373V41.0159C5.83325 42.6762 5.83325 43.5066 5.93397 44.3213C6.05277 45.2823 6.27592 46.2277 6.59947 47.1405C6.87376 47.9143 7.24507 48.657 7.98765 50.1421L11.9036 57.9741C12.2691 58.705 13.0161 59.1666 13.8333 59.1666C14.6504 59.1666 15.3974 58.705 15.7629 57.9741L19.6789 50.1421C20.4214 48.657 20.7927 47.9143 21.067 47.1405C21.3906 46.2277 21.6137 45.2823 21.7325 44.3213C21.8333 43.5066 21.8333 42.6762 21.8333 41.0159Z" fill="#777777"/>
<path d="M21.8333 13.8335C21.8333 9.41523 18.2515 5.8335 13.8333 5.8335C9.41499 5.8335 5.83325 9.41523 5.83325 13.8335V16.3855C5.90349 16.4208 5.97512 16.4562 6.04811 16.4916C7.86389 17.372 10.5136 18.2567 13.8337 18.2567C17.1539 18.2567 19.8036 17.372 21.6194 16.4916C21.692 16.4564 21.7633 16.4211 21.8333 16.386V13.8335Z" fill="#777777"/>
</svg>
