<svg width="102" height="24" viewBox="0 0 102 24" fill="none" xmlns="http://www.w3.org/2000/svg">
<path fill-rule="evenodd" clip-rule="evenodd" d="M8.86364 16.8C8.08004 16.8 7.32854 16.4839 6.77446 15.9213C6.22037 15.3587 5.90909 14.5956 5.90909 13.8V0H0V13.8C0 18.7704 3.96855 22.8 8.86364 22.8H15.3636V16.8H8.86364ZM26.5909 6C25.8925 6 25.201 6.13968 24.5557 6.41105C23.9105 6.68243 23.3242 7.08019 22.8304 7.58162C22.3365 8.08306 21.9448 8.67835 21.6776 9.33351C21.4103 9.98867 21.2727 10.6909 21.2727 11.4C21.2727 12.1091 21.4103 12.8113 21.6776 13.4665C21.9448 14.1216 22.3365 14.7169 22.8304 15.2184C23.3242 15.7198 23.9105 16.1176 24.5557 16.389C25.201 16.6603 25.8925 16.8 26.5909 16.8C28.0014 16.8 29.3541 16.2311 30.3514 15.2184C31.3488 14.2057 31.9091 12.8322 31.9091 11.4C31.9091 9.96783 31.3488 8.59432 30.3514 7.58162C29.3541 6.56893 28.0014 6 26.5909 6ZM15.3636 11.4C15.3636 5.1042 20.3905 0 26.5909 0C32.7913 0 37.8182 5.1042 37.8182 11.4C37.8182 17.6958 32.7913 22.8 26.5909 22.8C20.3905 22.8 15.3636 17.6958 15.3636 11.4ZM90.4091 6C88.9986 6 87.6459 6.56893 86.6486 7.58162C85.6512 8.59432 85.0909 9.96783 85.0909 11.4C85.0909 12.8322 85.6512 14.2057 86.6486 15.2184C87.6459 16.2311 88.9986 16.8 90.4091 16.8C91.8196 16.8 93.1723 16.2311 94.1696 15.2184C95.167 14.2057 95.7273 12.8322 95.7273 11.4C95.7273 9.96783 95.167 8.59432 94.1696 7.58162C93.1723 6.56893 91.8196 6 90.4091 6ZM79.1818 11.4C79.1818 5.1042 84.2087 0 90.4091 0C96.6095 0 101.636 5.1042 101.636 11.4C101.636 17.6958 96.6095 22.8 90.4091 22.8C84.2087 22.8 79.1818 17.6958 79.1818 11.4ZM50.2273 0C44.0269 0 39 5.1042 39 11.4C39 17.6958 44.0269 22.8 50.2273 22.8H66.7727C67.9362 22.8 69.0584 22.62 70.1137 22.2864L73.2727 24L76.6811 17.5176C77.5469 15.8674 77.9998 14.0264 78 12.1566V11.4C78 5.1042 72.9731 0 66.7727 0H50.2273ZM72.0909 11.4C72.0909 9.96783 71.5306 8.59432 70.5333 7.58162C69.5359 6.56893 68.1832 6 66.7727 6H50.2273C49.5289 6 48.8373 6.13968 48.1921 6.41105C47.5469 6.68243 46.9606 7.08019 46.4668 7.58162C45.9729 8.08306 45.5812 8.67835 45.3139 9.33351C45.0466 9.98867 44.9091 10.6909 44.9091 11.4C44.9091 12.1091 45.0466 12.8113 45.3139 13.4665C45.5812 14.1216 45.9729 14.7169 46.4668 15.2184C46.9606 15.7198 47.5469 16.1176 48.1921 16.389C48.8373 16.6603 49.5289 16.8 50.2273 16.8H66.7727C68.1761 16.8 69.5225 16.2369 70.5187 15.2333C71.5149 14.2296 72.08 12.8669 72.0909 11.442V11.4Z" fill="#3947CB"/>
</svg>
